<svg xmlns="http://www.w3.org/2000/svg" viewBox="0 -0.5 44 44" shape-rendering="crispEdges">
<metadata>Made with Pixels to Svg https://codepen.io/shshaw/pen/XbxvNj</metadata>
<path stroke="#000000" d="M16 0h15M14 1h2M30 1h2M13 2h1M16 2h1M20 2h1M26 2h3M32 2h2M12 3h1M15 3h1M29 3h3M34 3h1M11 4h1M14 4h1M31 4h2M35 4h1M11 5h1M13 5h1M33 5h1M35 5h1M10 6h1M12 6h1M33 6h1M35 6h1M10 7h1M34 7h1M36 7h1M9 8h1M34 8h1M36 8h1M9 9h1M34 9h1M36 9h1M9 10h1M12 10h1M34 10h1M36 10h1M8 11h1M12 11h1M16 11h1M23 11h2M34 11h1M36 11h1M8 12h1M11 12h2M15 12h1M17 12h1M22 12h1M25 12h1M34 12h1M36 12h1M8 13h1M11 13h2M15 13h1M17 13h1M22 13h1M25 13h1M34 13h1M36 13h1M7 14h1M12 14h1M14 14h2M17 14h1M22 14h1M25 14h1M34 14h1M36 14h1M7 15h1M10 15h1M12 15h1M14 15h1M16 15h1M23 15h2M34 15h1M36 15h1M7 16h1M9 16h2M12 16h1M14 16h1M36 16h1M8 17h1M11 17h1M13 17h1M35 17h1M12 18h1M15 18h1M29 18h1M36 18h1M13 19h1M16 19h1M28 19h1M32 19h1M34 19h1M37 19h1M9 20h4M17 20h2M26 20h2M31 20h1M33 20h1M35 20h2M38 20h1M8 21h1M18 21h5M25 21h1M29 21h2M33 21h1M37 21h1M39 21h1M7 22h1M10 22h2M17 22h1M20 22h1M26 22h2M29 22h1M33 22h1M38 22h1M40 22h1M7 23h1M9 23h1M12 23h1M17 23h1M28 23h1M31 23h2M39 23h1M41 23h1M7 24h1M9 24h1M13 24h2M16 24h1M29 24h2M40 24h1M42 24h1M7 25h1M9 25h1M13 25h1M15 25h2M31 25h3M36 25h3M41 25h1M43 25h1M7 26h1M9 26h1M13 26h1M17 26h1M30 26h1M34 26h1M36 26h1M39 26h1M41 26h1M43 26h1M7 27h1M10 27h1M18 27h2M30 27h1M33 27h1M35 27h1M37 27h2M41 27h1M43 27h1M8 28h1M10 28h1M30 28h1M32 28h1M34 28h1M36 28h1M39 28h1M41 28h1M43 28h1M9 29h1M11 29h1M30 29h1M32 29h1M35 29h1M39 29h1M43 29h1M9 30h1M12 30h1M30 30h1M32 30h1M40 30h3M3 31h1M10 31h1M12 31h2M17 31h2M30 31h1M32 31h1M2 32h1M4 32h1M9 32h1M11 32h1M13 32h5M30 32h1M32 32h1M1 33h1M3 33h1M5 33h1M9 33h1M11 33h1M14 33h1M17 33h1M30 33h1M32 33h1M0 34h1M2 34h1M4 34h1M6 34h4M11 34h1M15 34h1M17 34h1M31 34h1M33 34h1M0 35h1M2 35h1M5 35h1M11 35h1M16 35h2M31 35h1M33 35h1M0 36h1M2 36h1M6 36h6M31 36h1M34 36h1M0 37h1M2 37h1M32 37h1M35 37h1M0 38h1M2 38h2M32 38h2M36 38h1M0 39h1M3 39h10M23 39h1M33 39h2M37 39h2M1 40h1M13 40h11M35 40h1M39 40h1M2 41h10M24 41h11M37 41h2M12 42h11M36 42h2M23 43h13" />
<path stroke="#ffffff" d="M16 1h14M14 2h2M29 2h3M13 3h2M32 3h2M12 4h2M33 4h2M12 5h1M34 5h1M11 6h1M34 6h1M11 7h1M35 7h1M10 8h1M35 8h1M10 9h1M35 9h1M10 10h1M35 10h1M9 11h1M35 11h1M9 12h1M16 12h1M23 12h2M35 12h1M9 13h1M16 13h1M23 13h2M35 13h1M8 14h1M10 14h2M16 14h1M23 14h2M35 14h1M8 15h2M11 15h1M35 15h1M8 16h1M11 16h1M34 16h2M14 17h1M34 17h1M13 18h2M33 18h3M14 19h2M33 19h1M35 19h2M13 20h4M32 20h1M37 20h1M9 21h5M16 21h2M26 21h2M31 21h2M38 21h1M8 22h2M16 22h1M30 22h3M39 22h1M8 23h1M30 23h1M40 23h1M8 24h1M41 24h1M8 25h1M42 25h1M8 26h1M15 26h2M31 26h3M37 26h2M42 26h1M8 27h2M15 27h2M31 27h2M34 27h1M36 27h1M39 27h2M42 27h1M9 28h1M31 28h1M35 28h1M40 28h1M42 28h1M10 29h1M31 29h1M40 29h3M10 30h2M31 30h1M11 31h1M31 31h1M3 32h1M10 32h1M31 32h1M2 33h1M4 33h1M10 33h1M15 33h2M31 33h1M1 34h1M5 34h1M10 34h1M16 34h1M32 34h1M1 35h1M6 35h5M32 35h1M1 36h1M32 36h2M1 37h1M33 37h2M1 38h1M34 38h2M1 39h2M35 39h2M2 40h11M36 40h3M12 41h12M35 41h2M23 42h13" />
<path stroke="#87837e" d="M17 2h3M21 2h5M16 3h11M15 4h13M14 5h5M20 5h9M13 6h6M21 6h9M12 7h4M17 7h2M21 7h2M24 7h7M11 8h5M17 8h2M21 8h2M24 8h3M28 8h3M11 9h5M17 9h1M21 9h2M24 9h3M28 9h4M11 10h1M13 10h1M15 10h1M17 10h1M21 10h2M25 10h2M28 10h4M10 11h2M13 11h1M15 11h1M22 11h1M25 11h2M28 11h4M10 12h1M13 12h2M26 12h1M28 12h4M10 13h1M13 13h2M26 13h1M28 13h4M9 14h1M13 14h1M28 14h2M31 14h1M13 15h1M28 15h2M32 15h1M13 16h1M29 16h1" />
<path stroke="#5a5a5a" d="M27 3h2M28 4h3M19 5h1M29 5h4M19 6h2M30 6h3M16 7h1M19 7h1M23 7h1M31 7h3M16 8h1M23 8h1M27 8h1M31 8h3M16 9h1M23 9h1M27 9h1M32 9h2M14 10h1M23 10h2M27 10h1M32 10h2M14 11h1M32 11h2M32 12h2M32 13h2M32 14h2M31 15h1M33 15h1M31 16h3M31 17h3M30 18h3M29 19h3M28 20h3M34 20h1M14 21h2M28 21h1M34 21h3M12 22h4M21 22h1M25 22h1M28 22h1M34 22h4M13 23h4M21 23h1M24 23h1M29 23h1M33 23h6M15 24h1M24 24h1M27 24h1M31 24h9M24 25h1M26 25h1M30 25h1M34 25h2M39 25h2M24 26h1M26 26h1M35 26h1M40 26h1M25 27h1" />
<path stroke="#ffedd2" d="M20 7h1M19 8h2M18 9h3M16 10h1M18 10h3M17 11h5M27 11h1M18 12h4M27 12h1M18 13h4M27 13h1M18 14h4M26 14h2M30 14h1M15 15h1M17 15h6M25 15h3M30 15h1M15 16h14M30 16h1M16 17h3M22 17h9M17 18h2M22 18h6M18 19h8M23 21h2M18 22h2M23 22h1M10 23h2M19 23h2M23 23h1M25 23h3M10 24h1M17 24h1M20 24h1M23 24h1M25 24h2M12 25h1M17 25h1M20 25h1M23 25h1M25 25h1M10 26h3M18 26h3M25 26h1M21 31h1M21 32h2" />
<path stroke="#ffdba5" d="M15 17h1M16 18h1M28 18h1M17 19h1M26 19h2M19 20h7M11 24h1M11 25h1M18 25h2" />
<path stroke="#8d0414" d="M19 17h3M19 18h3" />
<path stroke="#a5a099" d="M22 22h1M24 22h1M22 23h1M22 24h1M28 24h1M27 25h3M27 26h3M17 27h1M23 27h2M26 27h4M17 28h2M23 28h3M27 28h3M17 29h2M22 29h7M18 30h3M22 30h6M29 30h1M19 31h2M23 31h4M28 31h2M18 32h3M27 32h3M18 33h2M24 33h6M18 34h2M21 34h1M24 34h7M18 35h1M20 35h2M24 35h7M24 36h7M24 37h8M24 38h8M24 39h9M24 40h11" />
<path stroke="#e7ccba" d="M18 23h1M18 24h2M10 25h1" />
<path stroke="#d2c6ba" d="M12 24h1M21 24h1M21 25h1M21 26h1M11 27h2M20 27h1" />
<path stroke="#fcf3ea" d="M14 25h1M22 25h1M14 26h1M22 26h2M13 27h2M21 27h2M11 28h2M19 28h4M19 29h3" />
<path stroke="#7b7369" d="M13 28h4M26 28h1M12 29h5M29 29h1M13 30h5M21 30h1M28 30h1M14 31h3M22 31h1M27 31h1M23 32h4M16 36h2M17 37h6M17 38h6M17 39h6" />
<path stroke="#42372a" d="M12 32h1M13 33h1M3 34h1M13 34h2M4 35h1M14 35h2M4 36h2M14 36h2M5 37h1M15 37h2M5 38h2M12 38h5M15 39h2" />
<path stroke="#9f968a" d="M12 33h1M12 34h1M12 35h2M12 36h2M12 37h3M4 38h1M13 39h2" />
<path stroke="#60523f" d="M20 33h4M19 35h1M22 35h2M18 36h6M6 37h6M23 37h1M7 38h5M23 38h1" />
<path stroke="#213548" d="M20 34h1M22 34h2" />
<path stroke="#72695d" d="M3 35h1M3 36h1M3 37h2" />
</svg>